<svg width="45" height="44" viewBox="0 0 45 44" fill="none" xmlns="http://www.w3.org/2000/svg">
<rect x="1.41602" y="0.75" width="42.5" height="42.5" rx="21.25" fill="#F3F6F9"/>
<rect x="1.41602" y="0.75" width="42.5" height="42.5" rx="21.25" stroke="#0057B8" stroke-width="1.5"/>
<path d="M20.7455 13.5381H15.3609C14.707 13.5381 14.207 14.0381 14.207 14.6919V30.0765C14.207 30.2689 14.3993 30.4612 14.5916 30.4612H16.1301C16.3609 30.4612 16.5147 30.3073 16.5147 30.0765V27.7689C16.5147 27.5381 16.6686 27.3842 16.8993 27.3842H19.207C19.4378 27.3842 19.5916 27.5381 19.5916 27.7689V30.0765C19.5916 30.3073 19.7455 30.4612 19.9763 30.4612H21.1301C21.5532 30.4612 21.8993 30.115 21.8993 29.6919V14.6919C21.8993 14.0381 21.3993 13.5381 20.7455 13.5381ZM17.284 25.6535C17.284 25.7689 17.207 25.8458 17.0916 25.8458H15.9378C15.8224 25.8458 15.7455 25.7689 15.7455 25.6535V23.7304C15.7455 23.615 15.8224 23.5381 15.9378 23.5381H17.0916C17.207 23.5381 17.284 23.615 17.284 23.7304V25.6535ZM17.284 21.8073C17.284 21.9227 17.207 21.9996 17.0916 21.9996H15.9378C15.8224 21.9996 15.7455 21.9227 15.7455 21.8073V19.8842C15.7455 19.7689 15.8224 19.6919 15.9378 19.6919H17.0916C17.207 19.6919 17.284 19.7689 17.284 19.8842V21.8073ZM17.284 17.9612C17.284 18.0765 17.207 18.1535 17.0916 18.1535H15.9378C15.8224 18.1535 15.7455 18.0765 15.7455 17.9612V16.0381C15.7455 15.9227 15.8224 15.8458 15.9378 15.8458H17.0916C17.207 15.8458 17.284 15.9227 17.284 16.0381V17.9612ZM20.3609 25.6535C20.3609 25.7689 20.284 25.8458 20.1686 25.8458H19.0147C18.8993 25.8458 18.8224 25.7689 18.8224 25.6535V23.7304C18.8224 23.615 18.8993 23.5381 19.0147 23.5381H20.1686C20.284 23.5381 20.3609 23.615 20.3609 23.7304V25.6535ZM20.3609 21.8073C20.3609 21.9227 20.284 21.9996 20.1686 21.9996H19.0147C18.8993 21.9996 18.8224 21.9227 18.8224 21.8073V19.8842C18.8224 19.7689 18.8993 19.6919 19.0147 19.6919H20.1686C20.284 19.6919 20.3609 19.7689 20.3609 19.8842V21.8073ZM20.3609 17.9612C20.3609 18.0765 20.284 18.1535 20.1686 18.1535H19.0147C18.8993 18.1535 18.8224 18.0765 18.8224 17.9612V16.0381C18.8224 15.9227 18.8993 15.8458 19.0147 15.8458H20.1686C20.284 15.8458 20.3609 15.9227 20.3609 16.0381V17.9612Z" fill="#0057B8"/>
<path d="M29.974 17.3838H24.5894C23.9355 17.3838 23.4355 17.8838 23.4355 18.5376V30.0761C23.4355 30.2684 23.6279 30.4607 23.8202 30.4607H25.3586C25.5894 30.4607 25.7432 30.3069 25.7432 30.0761V27.7684C25.7432 27.5376 25.8971 27.3838 26.1279 27.3838H28.4355C28.6663 27.3838 28.8202 27.5376 28.8202 27.7684V30.0761C28.8202 30.3069 28.974 30.4607 29.2048 30.4607H30.3586C30.7817 30.4607 31.1279 30.1146 31.1279 29.6915V18.5376C31.1279 17.8838 30.6279 17.3838 29.974 17.3838ZM26.5125 25.653C26.5125 25.7684 26.4355 25.8453 26.3202 25.8453H25.1663C25.0509 25.8453 24.974 25.7684 24.974 25.653V23.7299C24.974 23.6146 25.0509 23.5376 25.1663 23.5376H26.3202C26.4355 23.5376 26.5125 23.6146 26.5125 23.7299V25.653ZM26.5125 21.8069C26.5125 21.9223 26.4355 21.9992 26.3202 21.9992H25.1663C25.0509 21.9992 24.974 21.9223 24.974 21.8069V19.8838C24.974 19.7684 25.0509 19.6915 25.1663 19.6915H26.3202C26.4355 19.6915 26.5125 19.7684 26.5125 19.8838V21.8069ZM29.5894 25.653C29.5894 25.7684 29.5125 25.8453 29.3971 25.8453H28.2432C28.1279 25.8453 28.0509 25.7684 28.0509 25.653V23.7299C28.0509 23.6146 28.1279 23.5376 28.2432 23.5376H29.3971C29.5125 23.5376 29.5894 23.6146 29.5894 23.7299V25.653ZM29.5894 21.8069C29.5894 21.9223 29.5125 21.9992 29.3971 21.9992H28.2432C28.1279 21.9992 28.0509 21.9223 28.0509 21.8069V19.8838C28.0509 19.7684 28.1279 19.6915 28.2432 19.6915H29.3971C29.5125 19.6915 29.5894 19.7684 29.5894 19.8838V21.8069Z" fill="#0057B8"/>
</svg>
