<svg width="32" height="32" viewBox="0 0 32 32" fill="none" xmlns="http://www.w3.org/2000/svg">
<rect x="0.5" y="0.5" width="31" height="31" rx="15.5" fill="#0057B8"/>
<rect x="0.5" y="0.5" width="31" height="31" rx="15.5" stroke="#0057B8"/>
<path d="M11.576 19.278L13.61 18.756C13.7 19.998 14.618 20.934 15.968 20.934C17.192 20.934 18.182 20.106 18.182 18.81C18.182 17.37 17.12 16.65 15.932 16.65C15.104 16.65 14.402 16.992 13.988 17.46L11.954 16.722L13.394 10.836H19.784V12.726H14.852L14.132 15.678C14.636 15.156 15.536 14.868 16.364 14.868C18.686 14.868 20.36 16.308 20.36 18.756C20.36 20.952 18.668 22.788 15.968 22.788C13.448 22.788 11.72 21.114 11.576 19.278Z" fill="white"/>
</svg>
