<svg width="33" height="32" viewBox="0 0 33 32" fill="none" xmlns="http://www.w3.org/2000/svg">
<rect x="1" y="0.5" width="31" height="31" rx="15.5" fill="#2FBF71"/>
<rect x="1" y="0.5" width="31" height="31" rx="15.5" stroke="#2FBF71"/>
<path d="M23.1673 15.3867V16.0001C23.1665 17.4377 22.701 18.8365 21.8402 19.988C20.9794 21.1394 19.7695 21.9817 18.3909 22.3893C17.0123 22.797 15.5388 22.748 14.1903 22.2498C12.8418 21.7516 11.6904 20.8308 10.908 19.6248C10.1255 18.4188 9.75385 16.9921 9.84844 15.5576C9.94303 14.1231 10.4988 12.7576 11.4328 11.6648C12.3669 10.572 13.6292 9.81033 15.0314 9.4935C16.4337 9.17668 17.9008 9.32163 19.214 9.90674" stroke="white" stroke-width="1.33333" stroke-linecap="round" stroke-linejoin="round"/>
<path d="M23.1667 10.6667L16.5 17.3401L14.5 15.3401" stroke="white" stroke-width="1.33333" stroke-linecap="round" stroke-linejoin="round"/>
</svg>
