<svg width="45" height="44" viewBox="0 0 45 44" fill="none" xmlns="http://www.w3.org/2000/svg">
<rect x="1.08398" y="0.75" width="42.5" height="42.5" rx="21.25" fill="#F3F6F9"/>
<rect x="1.08398" y="0.75" width="42.5" height="42.5" rx="21.25" stroke="#0057B8" stroke-width="1.5"/>
<g clip-path="url(#clip0_24568_62969)">
<path d="M29.6673 14H15.0007C14.8238 14 14.6543 14.0702 14.5292 14.1953C14.4042 14.3203 14.334 14.4899 14.334 14.6667V17.3333C14.334 17.5101 14.4042 17.6797 14.5292 17.8047C14.6543 17.9298 14.8238 18 15.0007 18H29.6673C29.8441 18 30.0137 17.9298 30.1387 17.8047C30.2637 17.6797 30.334 17.5101 30.334 17.3333V14.6667C30.334 14.4899 30.2637 14.3203 30.1387 14.1953C30.0137 14.0702 29.8441 14 29.6673 14ZM29.6673 20H15.0007C14.8238 20 14.6543 20.0702 14.5292 20.1953C14.4042 20.3203 14.334 20.4899 14.334 20.6667V23.3333C14.334 23.5101 14.4042 23.6797 14.5292 23.8047C14.6543 23.9298 14.8238 24 15.0007 24H29.6673C29.8441 24 30.0137 23.9298 30.1387 23.8047C30.2637 23.6797 30.334 23.5101 30.334 23.3333V20.6667C30.334 20.4899 30.2637 20.3203 30.1387 20.1953C30.0137 20.0702 29.8441 20 29.6673 20ZM21.0007 26H15.0007C14.8238 26 14.6543 26.0702 14.5292 26.1953C14.4042 26.3203 14.334 26.4899 14.334 26.6667V29.3333C14.334 29.5101 14.4042 29.6797 14.5292 29.8047C14.6543 29.9298 14.8238 30 15.0007 30H21.0007C21.1775 30 21.347 29.9298 21.4721 29.8047C21.5971 29.6797 21.6673 29.5101 21.6673 29.3333V26.6667C21.6673 26.4899 21.5971 26.3203 21.4721 26.1953C21.347 26.0702 21.1775 26 21.0007 26ZM29.6673 26H23.6673C23.4905 26 23.3209 26.0702 23.1959 26.1953C23.0709 26.3203 23.0007 26.4899 23.0007 26.6667V29.3333C23.0007 29.5101 23.0709 29.6797 23.1959 29.8047C23.3209 29.9298 23.4905 30 23.6673 30H29.6673C29.8441 30 30.0137 29.9298 30.1387 29.8047C30.2637 29.6797 30.334 29.5101 30.334 29.3333V26.6667C30.334 26.4899 30.2637 26.3203 30.1387 26.1953C30.0137 26.0702 29.8441 26 29.6673 26Z" fill="#0057B8"/>
</g>
<defs>
<clipPath id="clip0_24568_62969">
<rect width="16" height="16" fill="white" transform="translate(14.334 14)"/>
</clipPath>
</defs>
</svg>
