<svg width="44" height="44" viewBox="0 0 44 44" fill="none" xmlns="http://www.w3.org/2000/svg">
<rect x="0.75" y="0.75" width="42.5" height="42.5" rx="21.25" fill="#F3F6F9"/>
<rect x="0.75" y="0.75" width="42.5" height="42.5" rx="21.25" stroke="#0057B8" stroke-width="1.5"/>
<g clip-path="url(#clip0_24568_62950)">
<path d="M22.3688 20.4211C24.6942 20.4211 26.5793 18.536 26.5793 16.2106C26.5793 13.8851 24.6942 12 22.3688 12C20.0433 12 18.1582 13.8851 18.1582 16.2106C18.1582 18.536 20.0433 20.4211 22.3688 20.4211Z" fill="#0057B8"/>
<path d="M22.3685 32C26.438 32 29.737 30.1149 29.737 27.7894C29.737 25.464 26.438 23.5789 22.3685 23.5789C18.299 23.5789 15 25.464 15 27.7894C15 30.1149 18.299 32 22.3685 32Z" fill="#0057B8"/>
</g>
<defs>
<clipPath id="clip0_24568_62950">
<rect width="20" height="20" fill="white" transform="translate(12 12)"/>
</clipPath>
</defs>
</svg>
